<svg width="468" height="369" viewBox="0 0 468 369" fill="none" xmlns="http://www.w3.org/2000/svg">
    <g clip-path="url(#dimulcqb8a)">
        <path d="M453.5 214.36c9.06-29.6 13.88-60.33 14.3-91.28.5-31.86-3-66.31-24-90.19C423.18 9.54 390.09 1.56 358.96.2c-12.61-.54-25.49-.18-37.46 3.82-24.17 8.08-41.11 29.51-62.55 43.29-41.39 26.6-97.31 23.45-137.1 52.39a114.673 114.673 0 0 0-26.24 27.15c-29 41.55-31.27 99.11-9.13 144.69s66.61 78.66 115.82 90.82c49.21 12.16 102.31 4.13 147.91-18 53.13-25.79 86.22-75.16 103.29-130z" fill="#B5EAEA"/>
        <path d="M362.46 34.33v208.46c0 6.2-5.01 11.22-11.21 11.23H73.23c-6.19.02-11.23-4.98-11.25-11.17V34.33c0-6.2 5.01-11.22 11.21-11.23H351.2c6.2-.02 11.24 4.98 11.26 11.18v.05z" fill="#fff"/>
        <path d="M362.46 40.77v202c.02 6.2-4.99 11.23-11.19 11.25H73.23c-1.06 0-2.11-.15-3.12-.44L362.46 40.77z" fill="#263238"/>
        <path opacity=".9" d="M362.46 40.77v202c.02 6.2-4.99 11.23-11.19 11.25H73.23c-1.06 0-2.11-.15-3.12-.44L362.46 40.77z" fill="#fff"/>
        <path d="m285.39 153.62 15.19-6.84-3.24-18.11-16.76-1.34a68.672 68.672 0 0 0-8.39-15.75l5.24-8.87 3.35-5.69-13-12.9-14.55 8.74a71.241 71.241 0 0 0-27.84-11.48L221.2 64.7h-18.36l-4.26 16.8a77.093 77.093 0 0 0-16.48 5.3l-13.19-11.36-15.05 10.25 6.26 16.25a68.07 68.07 0 0 0-10.25 13.72l-17.32-1.75-6.23 17.29 14.26 9.73c-.69 4.06-1.03 8.17-1 12.29-.12 1.69-.12 3.4 0 5.09l-15.14 8.5 4.8 17.71h17.1a73.27 73.27 0 0 0 9.29 14.94l-7.38 15.25 14.13 11.85 13.63-10.21a71.953 71.953 0 0 0 16.48 6.95l2.73 16.48 18.36 1.63 5.5-15.54c6-.6 11.9-1.89 17.6-3.85l11.65 11.64 15.95-9.2-4.39-15.88c4.64-3.89 8.76-8.34 12.28-13.26l16.16 2.9 7.78-16.66-12.7-10.24a73.25 73.25 0 0 0 1.98-17.7zm-41.95 0c0 17.24-13.98 31.21-31.21 31.21s-31.21-13.98-31.21-31.21 13.98-31.21 31.21-31.21c8.24 0 16.15 3.26 22 9.07.56.56 1.11 1.14 1.61 1.75a30.97 30.97 0 0 1 7.6 20.19v.2z" fill="#1CA6A8" stroke="#263238" stroke-width="1.03" stroke-miterlimit="10"/>
        <path opacity=".2" d="m283.41 171.27 12.7 10.24-7.78 16.66-16.16-2.9a71.838 71.838 0 0 1-12.28 13.26l4.39 15.88-15.95 9.2-11.65-11.59a77.669 77.669 0 0 1-17.62 3.9l-5.48 15.49-18.35-1.63-2.73-16.48a71.953 71.953 0 0 1-16.48-6.95l-13.63 10.21-14.13-11.85 7.32-15.25a75.408 75.408 0 0 1-3.55-4.81l33.62-24.63c9.07 14.67 28.32 19.2 42.99 10.13 9.2-5.69 14.8-15.73 14.8-26.54v-.2a30.97 30.97 0 0 0-7.6-20.19l41.63-30.52-5.24 8.87a68.802 68.802 0 0 1 8.35 15.76l16.68 1.34 3.32 18.11-15.15 6.84a73.38 73.38 0 0 1-2.02 17.65z" fill="#000"/>
        <path d="m348.5 105.48.76-.35c.88-.38 1.37-1.32 1.2-2.26l-.16-.93c-.16-.94-.94-1.65-1.89-1.72l-.92-.07c-.73-.05-1.38-.48-1.71-1.13-.25-.53-.51-1-.8-1.53a2.05 2.05 0 0 1 0-2.06l.47-.8c.48-.82.34-1.87-.33-2.54l-.66-.66c-.66-.71-1.74-.84-2.55-.31l-.81.48c-.64.37-1.42.37-2.06 0-1.31-.76-2.72-1.33-4.19-1.7-.73-.19-1.3-.77-1.48-1.51l-.24-1a2.053 2.053 0 0 0-2.06-1.59h-.92c-.98-.03-1.84.63-2.06 1.58l-.26 1a2.08 2.08 0 0 1-1.45 1.49c-.52.14-1 .3-1.51.48-.7.26-1.49.11-2.06-.38l-.83-.71a2.06 2.06 0 0 0-2.53-.14l-.73.49c-.81.54-1.13 1.58-.77 2.48l.37 1c.27.69.15 1.48-.32 2.06-.33.39-.64.8-.93 1.22-.42.64-1.16.98-1.91.89l-1-.1c-.95-.1-1.85.46-2.17 1.37l-.33.91c-.33.88-.02 1.87.75 2.41l.95.67c.6.43.93 1.14.86 1.88-.06.54-.08 1.08-.08 1.62-.02.71-.4 1.37-1 1.75l-1 .53c-.85.46-1.27 1.45-1 2.38l.24.9c.24.93 1.1 1.57 2.06 1.54h1c.74-.01 1.42.37 1.8 1 .28.49.58 1 .89 1.43.42.61.48 1.39.16 2.06l-.42.87c-.43.86-.2 1.9.54 2.51l.71.6c.73.63 1.8.66 2.57.09l.73-.51c.6-.43 1.39-.51 2.06-.2.52.25 1.05.48 1.6.68.69.26 1.19.86 1.31 1.59l.15.89c.15.95.94 1.66 1.9 1.72l.94.09c.95.08 1.83-.49 2.14-1.39l.29-.81c.25-.71.86-1.22 1.6-1.35.58-.09 1.16-.21 1.73-.37.72-.2 1.49 0 2 .55l.61.62c.66.68 1.7.82 2.52.34l.82-.47c.85-.46 1.26-1.44 1-2.37l-.23-.81c-.22-.73-.02-1.52.52-2.06.43-.42.84-.86 1.22-1.32.48-.6 1.25-.87 2-.7l.82.15c.94.21 1.89-.28 2.27-1.17l.39-.85c.42-.87.18-1.91-.58-2.51l-.62-.5c-.58-.46-.87-1.19-.76-1.92.1-.61.16-1.23.19-1.85.07-.73.52-1.36 1.19-1.67zm-7.39.54c0 5.77-4.67 10.44-10.44 10.44s-10.44-4.67-10.44-10.44 4.67-10.44 10.44-10.44c5.74 0 10.4 4.63 10.42 10.37l.02.07z" fill="#1CA6A8" stroke="#263238" stroke-width="1.03" stroke-miterlimit="10"/>
        <path d="M362.46 34.33v.57H61.98v-.57c0-6.2 5.01-11.22 11.21-11.23H351.2c6.2-.02 11.24 4.98 11.26 11.18v.05z" fill="#263238"/>
        <path d="M362.46 34.33v208.46c0 6.2-5.01 11.22-11.21 11.23H73.23c-6.2.02-11.23-4.99-11.25-11.19V34.33c0-6.2 5.01-11.22 11.21-11.23H351.2c6.2-.02 11.24 4.98 11.26 11.18v.05zM61.98 34.33h300.48" stroke="#263238" stroke-width="1.03" stroke-linecap="round" stroke-linejoin="round"/>
        <path d="M87.03 29.02a2.279 2.279 0 1 1-4.56 0 2.279 2.279 0 1 1 4.56 0zM97.82 29.02a2.28 2.28 0 1 1-4.56-.04 2.28 2.28 0 0 1 2.3-2.26h.02c1.25.02 2.25 1.05 2.24 2.3zM108.58 29.02a2.279 2.279 0 1 1-4.56 0 2.279 2.279 0 1 1 4.56 0z" fill="#1CA6A8"/>
        <path d="M260.21 153.62c0 26.36-21.37 47.73-47.73 47.73-26.36 0-47.73-21.37-47.73-47.73 0-26.36 21.37-47.73 47.73-47.73 26.24 0 47.57 21.19 47.73 47.43v.3z" stroke="#263238" stroke-width="4.12" stroke-miterlimit="10"/>
        <path d="M437.38 46.02H267.5c-6.197 0-11.22 5.023-11.22 11.22v37.71c0 6.197 5.023 11.22 11.22 11.22h169.88c6.197 0 11.22-5.023 11.22-11.22V57.24c0-6.197-5.023-11.22-11.22-11.22z" fill="#fff" stroke="#263238" stroke-width="1.03" stroke-miterlimit="10"/>
        <path d="M289.94 75.83h131.07M285.85 75.83l20.7-14.59h52.72l21.51 14.59" stroke="#263238" stroke-width="1.03" stroke-miterlimit="10"/>
        <path d="M384.86 75.83c0 2.26-1.83 4.09-4.09 4.09s-4.09-1.83-4.09-4.09 1.83-4.09 4.09-4.09h.01c2.25 0 4.08 1.84 4.08 4.09zM306.55 65.33a4.09 4.09 0 1 0 0-8.18 4.09 4.09 0 0 0 0 8.18zM363.35 61.24c0 2.26-1.82 4.09-4.08 4.1-2.26 0-4.09-1.82-4.1-4.08 0-2.26 1.82-4.09 4.08-4.1h.02c2.25 0 4.07 1.83 4.08 4.08z" fill="#1CA6A8" stroke="#263238" stroke-width="1.03" stroke-miterlimit="10"/>
        <path d="m285.85 75.83 20.7 14.59h97.16l17.3-14.59" stroke="#263238" stroke-width="1.03" stroke-miterlimit="10"/>
        <path d="M342.29 90.42c0 2.26-1.83 4.09-4.09 4.09s-4.09-1.83-4.09-4.09 1.83-4.09 4.09-4.09 4.09 1.83 4.09 4.09zM310.64 90.42c0 2.26-1.83 4.09-4.09 4.09s-4.09-1.83-4.09-4.09 1.83-4.09 4.09-4.09 4.09 1.83 4.09 4.09zM407.8 90.42c0 2.26-1.83 4.09-4.09 4.09s-4.09-1.83-4.09-4.09 1.83-4.09 4.09-4.09 4.09 1.83 4.09 4.09zM421.01 79.92a4.09 4.09 0 1 0 0-8.18 4.09 4.09 0 0 0 0 8.18zM289.94 75.83c0 2.26-1.83 4.09-4.09 4.09s-4.09-1.83-4.09-4.09 1.83-4.09 4.09-4.09h.01c2.25 0 4.08 1.84 4.08 4.09z" fill="#1CA6A8" stroke="#263238" stroke-width="1.03" stroke-miterlimit="10"/>
        <path d="M166.65 172.72H68.78c-6.197 0-11.22 5.023-11.22 11.22v97.87c0 6.197 5.023 11.22 11.22 11.22h97.87c6.197 0 11.22-5.023 11.22-11.22v-97.87c0-6.197-5.023-11.22-11.22-11.22z" fill="#fff" stroke="#263238" stroke-width="1.03" stroke-miterlimit="10"/>
        <path d="M102.67 241.41 87.09 271.7h70.62M157.71 195.65l-32.96 21.91 32.96 9.92" stroke="#263238" stroke-width="1.03" stroke-linecap="round" stroke-linejoin="round"/>
        <path d="M165.5 187.86h-15.58v15.58h15.58v-15.58zM165.5 219.69h-15.58v15.58h15.58v-15.58zM132.54 209.77h-15.58v15.58h15.58v-15.58zM110.46 233.62H94.88v15.58h15.58v-15.58zM94.88 263.9H79.3v15.58h15.58V263.9zM165.5 263.9h-15.58v15.58h15.58V263.9z" fill="#1CA6A8" stroke="#263238" stroke-width="1.03" stroke-miterlimit="10"/>
        <path d="M109.6 125.57H11.73c-6.197 0-11.22 5.023-11.22 11.22v97.87c0 6.197 5.023 11.22 11.22 11.22h97.87c6.197 0 11.22-5.023 11.22-11.22v-97.87c0-6.197-5.023-11.22-11.22-11.22z" fill="#fff" stroke="#263238" stroke-width="1.03" stroke-miterlimit="10"/>
        <path d="M93.27 137.21H13.24v6.2h80.03v-6.2zM59.48 147.42H13.24v6.2h46.24v-6.2zM40.17 157.63H13.24v6.2h26.93v-6.2zM57.56 167.83H13.24v6.2h44.32v-6.2zM82.33 178.04H13.24v6.2h69.09v-6.2zM59.48 188.24H13.24v6.2h46.24v-6.2zM45.5 198.45H13.24v6.2H45.5v-6.2zM65.47 208.66H13.24v6.2h52.23v-6.2zM76.56 218.86H13.24v6.2h63.32v-6.2zM93.27 229.07H13.24v6.2h80.03v-6.2z" fill="#1CA6A8"/>
        <path opacity=".3" d="M93.27 137.21H13.24v6.2h80.03v-6.2zM59.48 147.42H13.24v6.2h46.24v-6.2zM40.17 157.63H13.24v6.2h26.93v-6.2zM57.56 167.83H13.24v6.2h44.32v-6.2zM82.33 178.04H13.24v6.2h69.09v-6.2zM59.48 188.24H13.24v6.2h46.24v-6.2zM45.5 198.45H13.24v6.2H45.5v-6.2zM65.47 208.66H13.24v6.2h52.23v-6.2zM76.56 218.86H13.24v6.2h63.32v-6.2zM93.27 229.07H13.24v6.2h80.03v-6.2z" fill="#000"/>
        <path d="M64.77 115.02h29.12c2.93 0 5.3 2.37 5.3 5.3v5.27H59.47v-5.27c0-2.93 2.37-5.3 5.3-5.3z" fill="#fff" stroke="#263238" stroke-width="1.03" stroke-miterlimit="10"/>
        <path d="M45.08 115.02h28.78c3.03 0 5.48 2.45 5.48 5.48v5.1H39.58v-5.1c0-3.03 2.45-5.48 5.48-5.48h.02z" fill="#1CA6A8" stroke="#263238" stroke-width="1.03" stroke-miterlimit="10"/>
        <path d="M22.95 115.02h29.48a5.132 5.132 0 0 1 5.15 5.1v5.45H17.83v-5.45c.02-2.82 2.3-5.09 5.12-5.1z" fill="#fff" stroke="#263238" stroke-width="1.03" stroke-miterlimit="10"/>
        <path d="M241.18 332.54a33.172 33.172 0 0 1-13 3c-6.92 0-21-14.3-21-14.3s-.51-1.54.59-7.3 11.44-58.61 11.44-58.61 1.22-12.3 8.21-19.85c6.99-7.55 20.71-10.24 20.71-10.24s30.34-13.21 47.36-9.13c17 6.75 35.57 13.61 41.77 18.93 6.2 5.32 21.44 48 26.72 69.92 0 0-11.63 24.71-22.48 31.65-10.85 6.94-37 4.68-37 4.68l-63.32-8.75z" fill="#6AD8D8"/>
        <path opacity=".3" d="m237.33 289.59-4.39-58.25a19.131 19.131 0 0 0-11.49 13.59c-2.27 10.42-16 74.55-14.3 76.33 1.7 1.78 10.65 9.45 10.65 9.45s9.65 8.25 19.53 3.32 0-44.44 0-44.44z" fill="#000"/>
        <path opacity=".3" d="M280.89 236.74c-.51 1.74-2.7 2.3-4.52 2.32a21.52 21.52 0 0 1-14.27-5.2c-.72-.63-13.59 7.32-15.07 8.11-2.34 1.26-4.63 2.64-7 3.81-2.22 1.09-4.32 1.63-5.77 3.83-.96 1.62-1.69 3.37-2.15 5.2-3.12 10.22-6.41 20.41-9.25 30.7-2.46 8.91-5.77 18.77-5.63 28.12 0 .67.05 1.34.14 2 2 11.95 23.82 16.91 23.82 16.91s-7.72 4.73-13 3c-5.28-1.73-17.62-8.79-21.51-15.39l10.71-56s-.13-27 19.33-35c19.46-8 27.1-9.23 27.1-9.23l17.07 16.82zM352.7 324.83s8.5-9.39 11.25-19.85c0 0-13-42.94-16.38-51-3.38-8.06-8.85-17.21-12.68-21.13l-6.22 88.38-1.31 18.6s7 .29 11.85-2 13.49-13 13.49-13z" fill="#000"/>
        <path d="m327.36 339.86 7.53-107s-36.46-17-46-18.62c-9.54-1.62-55.87 16.64-55.87 16.64l6.74 102.62" stroke="#263238" stroke-width="1.03" stroke-linecap="round" stroke-linejoin="round"/>
        <path d="m261.64 162.02-3.74 17.95s-4.8-3.39-5.82.44c-1.02 3.83 2.1 9.1 8.13 9.39 0 0 1.64 8.13 7 13.65 2.52 2.69 5.19 5.24 8 7.64 0 0 2.11 13.63 9 14.15 6.89.52 8.23-5.68 9.62-14.3 0 0 5.95-10.32 7.69-15.9 0 0 7.3-5.09 2.43-12.52 0 0 2.41-17.77-1.78-20.77s-33.22-1.47-40.53.27z" fill="#fff"/>
        <path d="M283.87 226.66s-2.31 11.64-3.75 11.93c-1.44.29-7.14-5.15-12.12-11.93-4.98-6.78-4.21-6.79-4.21-6.79s2.31-8.9 4.21-10.2c1.9-1.3 8.75-1.14 8.75-1.14l15-.57s5-.71 8.09 1.28 4.59 10.63 4.59 10.63-9 16.59-16.34 18.72c-1.64-3.89-3.05-7.88-4.22-11.93z" fill="#fff"/>
        <path d="m234.7 314.06 1.99-27.92" stroke="#263238" stroke-width="1.03" stroke-miterlimit="10"/>
        <path d="M304.43 167.16s-8.52 3.3-16.05 2.67c0 0-7.95 8-18.13 3.25 0 0-9.18 24.86 11.87 41.12a36.011 36.011 0 0 1-21.91-24.41s-6 .93-8.13-8c0 0-1.73-3.45 6.16-3.47l-.34-17.3 20.27 4.07 14.55-2.13 11.71 4.2z" fill="#6AD8D8"/>
        <path opacity=".4" d="M304.43 167.16s-8.52 3.3-16.05 2.67c0 0-7.95 8-18.13 3.25 0 0-7.42 26.62 11 40.67 0 0-16.71-5.79-21.05-24 0 0-5.94-.63-8.13-8 0 0-1.73-3.45 6.16-3.47l-.34-17.3 20.27 4.07 14.55-2.13 11.72 4.24z" fill="#fff"/>
        <path d="M281.26 201.62c.66.53 1.35 1.03 2.07 1.48.47.3 1.18.54 1.51.1.11-.18.17-.39.17-.6.3-4.91-.85-9.87-.15-14.74" stroke="#263238" stroke-width="1.03" stroke-linecap="round" stroke-linejoin="round"/>
        <path d="M288.09 185.07s2.44-5.38 8.73-.55M280.18 186.02s-4.6-5.72-10.3.18" stroke="#263238" stroke-width="2.06" stroke-linecap="round" stroke-linejoin="round"/>
        <path d="M273.97 210.23s2.45 14.67 11.09 15.12c7 .36 8.38-11.77 8.65-16.11M259.08 181.6s-3.81-4.55-6.39-2.33c-2.58 2.22 1.29 12 7.52 10.52M275.58 203.44c1.88 2.27 4.45 3.85 7.32 4.52" stroke="#263238" stroke-width="1.03" stroke-linecap="round" stroke-linejoin="round"/>
        <path d="M275.16 194.93c.547 0 .99-.94.99-2.1 0-1.16-.443-2.1-.99-2.1-.547 0-.99.94-.99 2.1 0 1.16.443 2.1.99 2.1zM292.2 192.83c0 1.16-.45 2.1-1 2.1s-1-.94-1-2.1c0-1.16.44-2.11 1-2.11s1 .95 1 2.11z" fill="#263238"/>
        <path d="M284.15 225.23s-2.4 13.07-4 13.36c-1.6.29-13.91-10.87-16.33-18.72 0 0 2.6-10.26 5-10.63 1.13-.18 2.43-.35 3.46-.48M284.15 225.23s2.32 13.07 3.94 13.36c1.62.29 13.92-10.87 16.34-18.72 0 0-2.94-10.19-5.17-11.05-1.42-.53-2.89-.95-4.38-1.24" stroke="#263238" stroke-width="1.03" stroke-linecap="round" stroke-linejoin="round"/>
        <path d="M261.39 193.08c1.58 2.74 3.54-6.91 2.71-10-.56-2-1.65-3.94-1.75-6-.1-2.34 1-4.53 1.86-6.72.86-2.19 1.31-4.8 0-6.76a30.61 30.61 0 0 0 15.42 5.53c1.41.2 2.86.08 4.22-.34a4.153 4.153 0 0 0 2.74-3c5.2.66 10.35 1.34 15.53.63 4.35-.59 11.11-1.69 13.34-6.13 3.27-6.48-5.15-13.21-10.12-15.48-12-5.49-28.22-6.42-39.06 2.2-1.11.96-2.28 1.87-3.49 2.7-2.39 1.5-7.83 2.66-9.74 4.75-2.56 2.81.65 24.51.65 24.51s4.18-1.94 5.9 4.53c1.2 4.36.19 6.82 1.79 9.58z" fill="#263238"/>
        <path d="M300.71 165.02c-.07.27-.12.54-.14.82-.11 2.46.18 4.92.87 7.29.27 1.06.66 2.09.83 3.17.4 2.57.4 5.05 2.3 7.14 0 0 3.64-12.73 2.17-21.83-.17-1-.5-3.7-2.11-3.21-1.18.36-2 2.38-2.52 3.36-.58 1.03-1.05 2.13-1.4 3.26z" fill="#263238"/>
        <path d="M250.47 153.02c3.27-2.27 7.42-2.83 11.17-1.5 2.91-5.18 6.95-9.62 11.83-13" stroke="#263238" stroke-width="1.03" stroke-linecap="round" stroke-linejoin="round"/>
        <path opacity=".47" d="M266.11 149.96s19.6 13.94 31.47 10.49c11.87-3.45 8.55-13.66 8.55-13.66" stroke="#fff" stroke-width="1.03" stroke-linecap="round" stroke-linejoin="round"/>
        <path opacity=".47" d="M268 147.62s24.61 11.31 28.75-4.7" stroke="#fff" stroke-width="1.03" stroke-linecap="round" stroke-linejoin="round"/>
        <path d="M273.97 210.23s4.68 9.09 8.35 8.94c3.67-.15 10.4-9.93 10.4-9.93s-3.63 4.68-9.14 5.16c-3.63.32-9.61-4.17-9.61-4.17zM302.29 276.6l.76-.35c.88-.39 1.37-1.33 1.19-2.27l-.15-.92c-.15-.94-.94-1.66-1.89-1.72l-.92-.08c-.74-.05-1.39-.5-1.71-1.17-.25-.52-.51-1-.8-1.52a2.05 2.05 0 0 1 0-2.06l.47-.8c.47-.83.34-1.87-.33-2.55l-.66-.65c-.66-.71-1.74-.84-2.55-.31l-.81.48c-.64.37-1.42.37-2.06 0-1.31-.76-2.72-1.33-4.19-1.71-.73-.19-1.3-.77-1.48-1.5l-.24-1a2.007 2.007 0 0 0-2.06-1.58h-.92c-.98-.05-1.85.61-2.06 1.57l-.26 1c-.17.72-.73 1.3-1.45 1.48-.52.15-1 .3-1.52.49-.7.25-1.48.11-2.05-.38l-.83-.71c-.7-.65-1.76-.71-2.53-.15l-.73.5c-.83.52-1.16 1.58-.77 2.48l.37 1c.27.69.15 1.48-.32 2.06-.33.39-.64.8-.93 1.23-.43.62-1.16.96-1.91.88l-1-.09c-.96-.13-1.87.45-2.17 1.37l-.33.9c-.33.88-.02 1.87.75 2.41l1 .67c.6.43.93 1.15.86 1.89-.06.53-.09 1.07-.08 1.61a2.13 2.13 0 0 1-1 1.75l-1 .54c-.85.46-1.26 1.44-1 2.37l.24.9c.24.93 1.1 1.57 2.06 1.54h1c.73 0 1.42.37 1.8 1 .28.5.57 1 .89 1.43.42.61.48 1.39.16 2.06l-.42.88c-.43.86-.2 1.9.54 2.51l.71.6c.73.62 1.79.66 2.56.09l.74-.52c.58-.42 1.35-.49 2-.19.53.25 1.06.47 1.61.68.69.25 1.19.86 1.31 1.58l.15.9c.16.94.95 1.65 1.9 1.72l.94.08c.95.09 1.84-.49 2.14-1.39l.29-.8c.25-.71.86-1.22 1.6-1.35.58-.09 1.16-.22 1.73-.37.72-.19 1.48.02 2 .54l.61.62c.66.68 1.7.82 2.52.34l.82-.46c.85-.46 1.27-1.45 1-2.38l-.23-.8c-.22-.73-.02-1.52.52-2.06.43-.42.84-.87 1.22-1.33.49-.58 1.26-.85 2-.7l.83.16c.94.18 1.88-.31 2.27-1.18l.39-.84c.42-.87.18-1.91-.58-2.51l-.62-.51c-.59-.45-.88-1.18-.76-1.91.1-.61.16-1.23.19-1.85.08-.72.53-1.34 1.18-1.64zm-12.39.53c0 3-2.43 5.44-5.43 5.45-3 0-5.44-2.43-5.45-5.43-.01-3 2.43-5.44 5.43-5.45h.01c2.99 0 5.42 2.41 5.43 5.4v.03h.01z" fill="#263238"/>
        <path d="M234.91 310.3c-.82.9-1.71 1.73-2.67 2.47-2.6 2.52-4.56 5.64-5.69 9.08a7.414 7.414 0 0 0 0 4.92c1.21 3 5.05 6 8.12 4.08M234.67 305.02c-2.93-.46-5.81 1.24-7.81 3.41s-3.39 4.85-5.21 7.18" stroke="#263238" stroke-width="1.03" stroke-linecap="round" stroke-linejoin="round"/>
        <path d="M234.44 335.09c-3.9.76-7.94.33-11.59-1.24a32.61 32.61 0 0 1-6.42-4.52l-7.6-6.28c-1.22-1-2.57-2.45-2.07-3.95 0 0 12.7-66.93 14.69-74.17 2.31-8.35 11.61-14 11.61-14M329.73 311.02c3.27 2.46 5.77 5.8 7.21 9.63 1.14 3.55 1.9 7.22 2.27 10.93-2 1.1-6 4-9.48 4M330.16 305.45c3.08-.82 6.13 1.28 8.46 3.46 2.33 2.18 4.72 4.71 7.89 5.05" stroke="#263238" stroke-width="1.03" stroke-linecap="round" stroke-linejoin="round"/>
        <path d="M330.75 340.23c6-.63 11.4-3.9 15.72-8.07s7.64-9.23 10.93-14.24c2.67-4.06 5.38-8.23 6.55-12.94 0 0-10.53-34.81-16.38-51-6.1-16.83-12.68-21.13-12.68-21.13" stroke="#263238" stroke-width="1.03" stroke-linecap="round" stroke-linejoin="round"/>
        <path d="M330.16 305.45c5.43-4.56 13.76-.87 19.6 2.19" stroke="#263238" stroke-width="1.03" stroke-linecap="round" stroke-linejoin="round"/>
        <path d="M329.72 286.82h-94.81v54.49h94.81v-54.49z" fill="#fff"/>
        <path d="M330.16 341.31h-95.72v2.85h95.72v-2.85zM234.44 341.31l95.29-54.49.43 54.49h-95.72z" fill="#263238"/>
        <path opacity=".9" d="m234.44 341.31 95.29-54.49.43 54.49h-95.72z" fill="#fff"/>
        <path d="M283.6 321.25a8.08 8.08 0 1 0 0-16.16 8.08 8.08 0 0 0 0 16.16z" fill="#263238"/>
        <path d="M329.72 286.82h-94.81v54.49h94.81v-54.49zM258.64 176.08s2.08 19 4.72 22.43c2.64 3.43 11.12 15.84 20.36 15.65 9.24-.19 15.27-12.07 16.78-17.16a88.086 88.086 0 0 0 3.39-19.79M301.46 195.02s6.85-3.54 2.43-12.52" stroke="#263238" stroke-width="1.03" stroke-linecap="round" stroke-linejoin="round"/>
    </g>
    <defs>
        <clipPath id="dimulcqb8a">
            <path fill="#fff" d="M0 0h467.84v368.03H0z"/>
        </clipPath>
    </defs>
</svg>
